<svg xmlns="http://www.w3.org/2000/svg" xmlns:xlink="http://www.w3.org/1999/xlink" viewBox="0 0 739.79 24.35">
	<defs>
		<style>.cls-1{fill:url(#Dégradé_sans_nom_21);}.cls-2{fill:url(#Dégradé_sans_nom_21-2);}.cls-3{fill:url(#Dégradé_sans_nom_21-3);}.cls-4{fill:url(#Dégradé_sans_nom_21-4);}.cls-5{fill:url(#Dégradé_sans_nom_21-5);}.cls-6{fill:url(#Dégradé_sans_nom_21-49);}.cls-7{fill:url(#Dégradé_sans_nom_21-50);}.cls-8{fill:url(#Dégradé_sans_nom_21-89);}
		</style>
		<linearGradient id="Dégradé_sans_nom_21" x1="-5.23" y1="8.79" x2="717.47" y2="8.79" gradientUnits="userSpaceOnUse">
			<stop offset="0" stop-color="blue"/>
			<stop offset="0.07" stop-color="#2200e8"/>
			<stop offset="0.24" stop-color="#7700af"/>
			<stop offset="0.38" stop-color="#b50085"/>
			<stop offset="0.48" stop-color="#db006b"/>
			<stop offset="0.53" stop-color="#ea0061"/>
			<stop offset="0.91" stop-color="#ffa736"/>
		</linearGradient>
		<linearGradient id="Dégradé_sans_nom_21-2" x1="-5.23" y1="15.57" x2="717.47" y2="15.57" xlink:href="#Dégradé_sans_nom_21"/>
		<linearGradient id="Dégradé_sans_nom_21-3" x1="-5.23" y1="8.79" x2="717.47" y2="8.79" xlink:href="#Dégradé_sans_nom_21"/>
		<linearGradient id="Dégradé_sans_nom_21-4" x1="-5.23" y1="15.57" x2="717.47" y2="15.57" xlink:href="#Dégradé_sans_nom_21"/>
		<linearGradient id="Dégradé_sans_nom_21-5" x1="-5.23" y1="11.94" x2="717.47" y2="11.94" xlink:href="#Dégradé_sans_nom_21"/>
		<linearGradient id="Dégradé_sans_nom_21-49" x1="-5.23" y1="15.57" x2="717.48" y2="15.57" xlink:href="#Dégradé_sans_nom_21"/>
		<linearGradient id="Dégradé_sans_nom_21-50" x1="-5.23" y1="11.94" x2="717.47" y2="11.94" xlink:href="#Dégradé_sans_nom_21"/>
		<linearGradient id="Dégradé_sans_nom_21-89" x1="-5.23" y1="12.09" x2="717.47" y2="12.09" xlink:href="#Dégradé_sans_nom_21"/>
	</defs>
	<title>king-secret</title>
	<g id="Calque_2" data-name="Calque 2">
		<g id="Elements_par_page" data-name="Elements par page">
			<g id="_Groupe_" data-name="&lt;Groupe&gt;">
				<path id="_Tracé_" data-name="&lt;Tracé&gt;" class="cls-1" d="M5.42,3.7a10.8,10.8,0,0,1,13.16-.22l.81-1.09A12.15,12.15,0,0,0,1.27,17.58L2.48,17A10.84,10.84,0,0,1,5.42,3.7Z"/>
				<path id="_Tracé_2" data-name="&lt;Tracé&gt;" class="cls-2" d="M21.84,7.4a10.85,10.85,0,0,1-3,13.2A10.69,10.69,0,0,1,6,21.06l-.81,1.08A11.32,11.32,0,0,0,12,24.35a12.44,12.44,0,0,0,7.72-2.69A12.22,12.22,0,0,0,23.05,6.8Z"/>
				<path id="_Tracé_3" data-name="&lt;Tracé&gt;" class="cls-3" d="M249.62,3.7a10.8,10.8,0,0,1,13.16-.22l.81-1.09a12.15,12.15,0,0,0-18.11,15.18l1.21-.61A10.83,10.83,0,0,1,249.62,3.7Z"/>
				<path id="_Tracé_4" data-name="&lt;Tracé&gt;" class="cls-4" d="M266,7.4a10.85,10.85,0,0,1-3,13.2,10.69,10.69,0,0,1-12.88.47l-.81,1.08a11.32,11.32,0,0,0,6.81,2.2,12.44,12.44,0,0,0,7.72-2.69A12.21,12.21,0,0,0,267.25,6.8Z"/>
				<rect id="_Tracé_5" data-name="&lt;Tracé&gt;" class="cls-5" x="77.72" y="11.45" width="1.29" height="0.98"/>
				<rect id="_Tracé_6" data-name="&lt;Tracé&gt;" class="cls-5" x="72.55" y="11.45" width="1.29" height="0.98"/>
				<rect id="_Tracé_7" data-name="&lt;Tracé&gt;" class="cls-5" x="82.89" y="11.45" width="1.29" height="0.98"/>
				<rect id="_Tracé_8" data-name="&lt;Tracé&gt;" class="cls-5" x="93.24" y="11.45" width="1.29" height="0.98"/>
				<rect id="_Tracé_9" data-name="&lt;Tracé&gt;" class="cls-5" x="88.06" y="11.45" width="1.29" height="0.98"/>
				<rect id="_Tracé_10" data-name="&lt;Tracé&gt;" class="cls-5" x="67.37" y="11.45" width="1.29" height="0.98"/>
				<rect id="_Tracé_11" data-name="&lt;Tracé&gt;" class="cls-5" x="57.03" y="11.45" width="1.29" height="0.98"/>
				<rect id="_Tracé_12" data-name="&lt;Tracé&gt;" class="cls-5" x="46.68" y="11.45" width="1.29" height="0.98"/>
				<rect id="_Tracé_13" data-name="&lt;Tracé&gt;" class="cls-5" x="41.51" y="11.45" width="1.29" height="0.98"/>
				<rect id="_Tracé_14" data-name="&lt;Tracé&gt;" class="cls-5" x="98.41" y="11.45" width="1.29" height="0.98"/>
				<rect id="_Tracé_15" data-name="&lt;Tracé&gt;" class="cls-5" x="51.86" y="11.45" width="1.29" height="0.98"/>
				<rect id="_Tracé_16" data-name="&lt;Tracé&gt;" class="cls-5" x="36.34" y="11.45" width="1.29" height="0.98"/>
				<rect id="_Tracé_17" data-name="&lt;Tracé&gt;" class="cls-5" x="62.2" y="11.45" width="1.29" height="0.98"/>
				<rect id="_Tracé_18" data-name="&lt;Tracé&gt;" class="cls-5" x="31.17" y="11.45" width="1.29" height="0.98"/>
				<rect id="_Tracé_19" data-name="&lt;Tracé&gt;" class="cls-5" x="150.13" y="11.45" width="1.29" height="0.98"/>
				<rect id="_Tracé_20" data-name="&lt;Tracé&gt;" class="cls-5" x="134.62" y="11.45" width="1.29" height="0.98"/>
				<rect id="_Tracé_21" data-name="&lt;Tracé&gt;" class="cls-5" x="139.79" y="11.45" width="1.29" height="0.98"/>
				<rect id="_Tracé_22" data-name="&lt;Tracé&gt;" class="cls-5" x="144.96" y="11.45" width="1.29" height="0.98"/>
				<rect id="_Tracé_23" data-name="&lt;Tracé&gt;" class="cls-5" x="103.58" y="11.45" width="1.29" height="0.98"/>
				<rect id="_Tracé_24" data-name="&lt;Tracé&gt;" class="cls-5" x="160.48" y="11.45" width="1.29" height="0.98"/>
				<rect id="_Tracé_25" data-name="&lt;Tracé&gt;" class="cls-5" x="129.44" y="11.45" width="1.29" height="0.98"/>
				<rect id="_Tracé_26" data-name="&lt;Tracé&gt;" class="cls-5" x="113.93" y="11.45" width="1.29" height="0.98"/>
				<rect id="_Tracé_27" data-name="&lt;Tracé&gt;" class="cls-5" x="108.75" y="11.45" width="1.29" height="0.98"/>
				<rect id="_Tracé_28" data-name="&lt;Tracé&gt;" class="cls-5" x="155.31" y="11.45" width="1.29" height="0.98"/>
				<rect id="_Tracé_29" data-name="&lt;Tracé&gt;" class="cls-5" x="176.24" y="11.45" width="1.29" height="0.98"/>
				<rect id="_Tracé_30" data-name="&lt;Tracé&gt;" class="cls-5" x="165.9" y="11.45" width="1.29" height="0.98"/>
				<rect id="_Tracé_31" data-name="&lt;Tracé&gt;" class="cls-5" x="171.07" y="11.45" width="1.29" height="0.98"/>
				<rect id="_Tracé_32" data-name="&lt;Tracé&gt;" class="cls-5" x="186.59" y="11.45" width="1.29" height="0.98"/>
				<rect id="_Tracé_33" data-name="&lt;Tracé&gt;" class="cls-5" x="191.63" y="11.45" width="1.29" height="0.98"/>
				<rect id="_Tracé_34" data-name="&lt;Tracé&gt;" class="cls-5" x="181.41" y="11.45" width="1.29" height="0.98"/>
				<rect id="_Tracé_35" data-name="&lt;Tracé&gt;" class="cls-5" x="124.27" y="11.45" width="1.29" height="0.98"/>
				<rect id="_Tracé_36" data-name="&lt;Tracé&gt;" class="cls-5" x="119.1" y="11.45" width="1.29" height="0.98"/>
				<rect id="_Tracé_37" data-name="&lt;Tracé&gt;" class="cls-5" x="227.5" y="11.45" width="1.29" height="0.98"/>
				<rect id="_Tracé_38" data-name="&lt;Tracé&gt;" class="cls-5" x="211.98" y="11.45" width="1.29" height="0.98"/>
				<rect id="_Tracé_39" data-name="&lt;Tracé&gt;" class="cls-5" x="217.15" y="11.45" width="1.29" height="0.98"/>
				<rect id="_Tracé_40" data-name="&lt;Tracé&gt;" class="cls-5" x="222.32" y="11.45" width="1.29" height="0.98"/>
				<rect id="_Tracé_41" data-name="&lt;Tracé&gt;" class="cls-5" x="237.84" y="11.45" width="1.29" height="0.98"/>
				<rect id="_Tracé_42" data-name="&lt;Tracé&gt;" class="cls-5" x="206.81" y="11.45" width="1.29" height="0.98"/>
				<rect id="_Tracé_43" data-name="&lt;Tracé&gt;" class="cls-5" x="232.67" y="11.45" width="1.29" height="0.98"/>
				<rect id="_Tracé_44" data-name="&lt;Tracé&gt;" class="cls-5" x="201.63" y="11.45" width="1.29" height="0.98"/>
				<rect id="_Tracé_45" data-name="&lt;Tracé&gt;" class="cls-5" x="196.46" y="11.45" width="1.29" height="0.98"/>
				<path id="_Tracé_46" data-name="&lt;Tracé&gt;" class="cls-1" d="M485.64,3.7a10.8,10.8,0,0,1,13.16-.22l.81-1.09A12.15,12.15,0,0,0,481.5,17.58L482.7,17A10.84,10.84,0,0,1,485.64,3.7Z"/>
				<path id="_Tracé_47" data-name="&lt;Tracé&gt;" class="cls-2" d="M502.06,7.4a10.85,10.85,0,0,1-3,13.2,10.69,10.69,0,0,1-12.88.47l-.81,1.08a11.32,11.32,0,0,0,6.81,2.2,12.44,12.44,0,0,0,7.72-2.69A12.22,12.22,0,0,0,503.27,6.8Z"/>
				<path id="_Tracé_48" data-name="&lt;Tracé&gt;" class="cls-3" d="M720.93,3.7a10.8,10.8,0,0,1,13.16-.22l.81-1.09a12.15,12.15,0,0,0-18.11,15.18L718,17A10.83,10.83,0,0,1,720.93,3.7Z"/>
				<path id="_Tracé_49" data-name="&lt;Tracé&gt;" class="cls-6" d="M738.56,6.8l-1.22.6a10.85,10.85,0,0,1-3,13.2,10.69,10.69,0,0,1-12.88.47l-.81,1.08a11.32,11.32,0,0,0,6.81,2.2,12.44,12.44,0,0,0,7.72-2.69A12.21,12.21,0,0,0,738.56,6.8Z"/>
				<rect id="_Tracé_50" data-name="&lt;Tracé&gt;" class="cls-7" x="583.61" y="11.46" width="1.29" height="0.97"/>
				<rect id="_Tracé_51" data-name="&lt;Tracé&gt;" class="cls-7" x="609.4" y="11.46" width="1.29" height="0.97"/>
				<rect id="_Tracé_52" data-name="&lt;Tracé&gt;" class="cls-7" x="614.56" y="11.46" width="1.29" height="0.97"/>
				<rect id="_Tracé_53" data-name="&lt;Tracé&gt;" class="cls-7" x="604.24" y="11.46" width="1.29" height="0.97"/>
				<rect id="_Tracé_54" data-name="&lt;Tracé&gt;" class="cls-7" x="593.93" y="11.46" width="1.29" height="0.97"/>
				<rect id="_Tracé_55" data-name="&lt;Tracé&gt;" class="cls-7" x="599.09" y="11.46" width="1.29" height="0.97"/>
				<rect id="_Tracé_56" data-name="&lt;Tracé&gt;" class="cls-7" x="619.72" y="11.46" width="1.29" height="0.97"/>
				<rect id="_Tracé_57" data-name="&lt;Tracé&gt;" class="cls-7" x="640.36" y="11.46" width="1.29" height="0.97"/>
				<rect id="_Tracé_58" data-name="&lt;Tracé&gt;" class="cls-7" x="588.77" y="11.46" width="1.29" height="0.97"/>
				<rect id="_Tracé_59" data-name="&lt;Tracé&gt;" class="cls-7" x="635.2" y="11.46" width="1.29" height="0.97"/>
				<rect id="_Tracé_60" data-name="&lt;Tracé&gt;" class="cls-7" x="624.88" y="11.46" width="1.29" height="0.97"/>
				<rect id="_Tracé_61" data-name="&lt;Tracé&gt;" class="cls-7" x="511.38" y="11.46" width="1.29" height="0.97"/>
				<rect id="_Tracé_62" data-name="&lt;Tracé&gt;" class="cls-7" x="630.04" y="11.46" width="1.29" height="0.97"/>
				<rect id="_Tracé_63" data-name="&lt;Tracé&gt;" class="cls-7" x="552.65" y="11.46" width="1.29" height="0.97"/>
				<rect id="_Tracé_64" data-name="&lt;Tracé&gt;" class="cls-7" x="542.33" y="11.46" width="1.29" height="0.97"/>
				<rect id="_Tracé_65" data-name="&lt;Tracé&gt;" class="cls-7" x="526.85" y="11.46" width="1.29" height="0.97"/>
				<rect id="_Tracé_66" data-name="&lt;Tracé&gt;" class="cls-7" x="537.17" y="11.46" width="1.29" height="0.97"/>
				<rect id="_Tracé_67" data-name="&lt;Tracé&gt;" class="cls-7" x="578.45" y="11.46" width="1.29" height="0.97"/>
				<rect id="_Tracé_68" data-name="&lt;Tracé&gt;" class="cls-7" x="516.53" y="11.46" width="1.29" height="0.97"/>
				<rect id="_Tracé_69" data-name="&lt;Tracé&gt;" class="cls-7" x="521.69" y="11.46" width="1.29" height="0.97"/>
				<rect id="_Tracé_70" data-name="&lt;Tracé&gt;" class="cls-7" x="532.01" y="11.46" width="1.29" height="0.97"/>
				<rect id="_Tracé_71" data-name="&lt;Tracé&gt;" class="cls-7" x="568.13" y="11.46" width="1.29" height="0.97"/>
				<rect id="_Tracé_72" data-name="&lt;Tracé&gt;" class="cls-7" x="573.29" y="11.46" width="1.29" height="0.97"/>
				<rect id="_Tracé_73" data-name="&lt;Tracé&gt;" class="cls-7" x="651.32" y="11.46" width="1.29" height="0.97"/>
				<rect id="_Tracé_74" data-name="&lt;Tracé&gt;" class="cls-7" x="677.12" y="11.46" width="1.29" height="0.97"/>
				<rect id="_Tracé_75" data-name="&lt;Tracé&gt;" class="cls-7" x="682.28" y="11.46" width="1.29" height="0.97"/>
				<rect id="_Tracé_76" data-name="&lt;Tracé&gt;" class="cls-7" x="671.96" y="11.46" width="1.29" height="0.97"/>
				<rect id="_Tracé_77" data-name="&lt;Tracé&gt;" class="cls-7" x="661.64" y="11.46" width="1.29" height="0.97"/>
				<rect id="_Tracé_78" data-name="&lt;Tracé&gt;" class="cls-7" x="666.8" y="11.46" width="1.29" height="0.97"/>
				<rect id="_Tracé_79" data-name="&lt;Tracé&gt;" class="cls-7" x="687.44" y="11.46" width="1.29" height="0.97"/>
				<rect id="_Tracé_80" data-name="&lt;Tracé&gt;" class="cls-7" x="708.08" y="11.46" width="1.29" height="0.97"/>
				<rect id="_Tracé_81" data-name="&lt;Tracé&gt;" class="cls-7" x="656.48" y="11.46" width="1.29" height="0.97"/>
				<rect id="_Tracé_82" data-name="&lt;Tracé&gt;" class="cls-7" x="702.92" y="11.46" width="1.29" height="0.97"/>
				<rect id="_Tracé_83" data-name="&lt;Tracé&gt;" class="cls-7" x="692.6" y="11.46" width="1.29" height="0.97"/>
				<rect id="_Tracé_84" data-name="&lt;Tracé&gt;" class="cls-7" x="697.76" y="11.46" width="1.29" height="0.97"/>
				<rect id="_Tracé_85" data-name="&lt;Tracé&gt;" class="cls-7" x="646.16" y="11.46" width="1.29" height="0.97"/>
				<rect id="_Tracé_86" data-name="&lt;Tracé&gt;" class="cls-7" x="562.97" y="11.46" width="1.29" height="0.97"/>
				<rect id="_Tracé_87" data-name="&lt;Tracé&gt;" class="cls-7" x="547.49" y="11.46" width="1.29" height="0.97"/>
				<rect id="_Tracé_88" data-name="&lt;Tracé&gt;" class="cls-7" x="557.81" y="11.46" width="1.29" height="0.97"/>
				<rect id="_Tracé_89" data-name="&lt;Tracé&gt;" class="cls-8" x="296.19" y="11.59" width="1.31" height="0.99"/>
				<rect id="_Tracé_90" data-name="&lt;Tracé&gt;" class="cls-8" x="369.77" y="11.59" width="1.31" height="0.99"/>
				<rect id="_Tracé_91" data-name="&lt;Tracé&gt;" class="cls-8" x="380.28" y="11.59" width="1.31" height="0.99"/>
				<rect id="_Tracé_92" data-name="&lt;Tracé&gt;" class="cls-8" x="375.03" y="11.59" width="1.31" height="0.99"/>
				<rect id="_Tracé_93" data-name="&lt;Tracé&gt;" class="cls-8" x="364.52" y="11.59" width="1.31" height="0.99"/>
				<rect id="_Tracé_94" data-name="&lt;Tracé&gt;" class="cls-8" x="359.26" y="11.59" width="1.31" height="0.99"/>
				<rect id="_Tracé_95" data-name="&lt;Tracé&gt;" class="cls-8" x="354" y="11.59" width="1.31" height="0.99"/>
				<rect id="_Tracé_96" data-name="&lt;Tracé&gt;" class="cls-8" x="401.31" y="11.59" width="1.31" height="0.99"/>
				<rect id="_Tracé_97" data-name="&lt;Tracé&gt;" class="cls-8" x="348.75" y="11.59" width="1.31" height="0.99"/>
				<rect id="_Tracé_98" data-name="&lt;Tracé&gt;" class="cls-8" x="385.54" y="11.59" width="1.31" height="0.99"/>
				<rect id="_Tracé_99" data-name="&lt;Tracé&gt;" class="cls-8" x="406.56" y="11.59" width="1.31" height="0.99"/>
				<rect id="_Tracé_100" data-name="&lt;Tracé&gt;" class="cls-8" x="390.8" y="11.59" width="1.31" height="0.99"/>
				<rect id="_Tracé_101" data-name="&lt;Tracé&gt;" class="cls-8" x="396.05" y="11.59" width="1.31" height="0.99"/>
				<rect id="_Tracé_102" data-name="&lt;Tracé&gt;" class="cls-8" x="317.21" y="11.59" width="1.31" height="0.99"/>
				<rect id="_Tracé_103" data-name="&lt;Tracé&gt;" class="cls-8" x="301.45" y="11.59" width="1.31" height="0.99"/>
				<rect id="_Tracé_104" data-name="&lt;Tracé&gt;" class="cls-8" x="306.7" y="11.59" width="1.31" height="0.99"/>
				<rect id="_Tracé_105" data-name="&lt;Tracé&gt;" class="cls-8" x="290.94" y="11.59" width="1.31" height="0.99"/>
				<rect id="_Tracé_106" data-name="&lt;Tracé&gt;" class="cls-8" x="280.42" y="11.59" width="1.31" height="0.99"/>
				<rect id="_Tracé_107" data-name="&lt;Tracé&gt;" class="cls-8" x="311.96" y="11.59" width="1.31" height="0.99"/>
				<rect id="_Tracé_108" data-name="&lt;Tracé&gt;" class="cls-8" x="285.68" y="11.59" width="1.31" height="0.99"/>
				<rect id="_Tracé_109" data-name="&lt;Tracé&gt;" class="cls-8" x="275.17" y="11.59" width="1.31" height="0.99"/>
				<rect id="_Tracé_110" data-name="&lt;Tracé&gt;" class="cls-8" x="338.24" y="11.59" width="1.31" height="0.99"/>
				<rect id="_Tracé_111" data-name="&lt;Tracé&gt;" class="cls-8" x="332.98" y="11.59" width="1.31" height="0.99"/>
				<rect id="_Tracé_112" data-name="&lt;Tracé&gt;" class="cls-8" x="327.72" y="11.59" width="1.31" height="0.99"/>
				<rect id="_Tracé_113" data-name="&lt;Tracé&gt;" class="cls-8" x="343.49" y="11.59" width="1.31" height="0.99"/>
				<rect id="_Tracé_114" data-name="&lt;Tracé&gt;" class="cls-8" x="438.1" y="11.59" width="1.31" height="0.99"/>
				<rect id="_Tracé_115" data-name="&lt;Tracé&gt;" class="cls-8" x="448.61" y="11.59" width="1.31" height="0.99"/>
				<rect id="_Tracé_116" data-name="&lt;Tracé&gt;" class="cls-8" x="443.35" y="11.59" width="1.31" height="0.99"/>
				<rect id="_Tracé_117" data-name="&lt;Tracé&gt;" class="cls-8" x="432.84" y="11.59" width="1.31" height="0.99"/>
				<rect id="_Tracé_118" data-name="&lt;Tracé&gt;" class="cls-8" x="427.58" y="11.59" width="1.31" height="0.99"/>
				<rect id="_Tracé_119" data-name="&lt;Tracé&gt;" class="cls-8" x="422.33" y="11.59" width="1.31" height="0.99"/>
				<rect id="_Tracé_120" data-name="&lt;Tracé&gt;" class="cls-8" x="469.63" y="11.59" width="1.31" height="0.99"/>
				<rect id="_Tracé_121" data-name="&lt;Tracé&gt;" class="cls-8" x="417.07" y="11.59" width="1.31" height="0.99"/>
				<rect id="_Tracé_122" data-name="&lt;Tracé&gt;" class="cls-8" x="453.86" y="11.59" width="1.31" height="0.99"/>
				<rect id="_Tracé_123" data-name="&lt;Tracé&gt;" class="cls-8" x="474.89" y="11.59" width="1.31" height="0.99"/>
				<rect id="_Tracé_124" data-name="&lt;Tracé&gt;" class="cls-8" x="459.12" y="11.59" width="1.31" height="0.99"/>
				<rect id="_Tracé_125" data-name="&lt;Tracé&gt;" class="cls-8" x="464.38" y="11.59" width="1.31" height="0.99"/>
				<rect id="_Tracé_126" data-name="&lt;Tracé&gt;" class="cls-8" x="411.82" y="11.59" width="1.31" height="0.99"/>
				<rect id="_Tracé_127" data-name="&lt;Tracé&gt;" class="cls-8" x="322.47" y="11.59" width="1.31" height="0.99"/>
			</g>
		</g>
	</g>
</svg>
